<svg width="38" height="38" viewBox="0 0 38 38" fill="none" xmlns="http://www.w3.org/2000/svg">
<path d="M14.6459 34.8333L14.0125 29.7667C13.6695 29.6347 13.3462 29.4764 13.0427 29.2917C12.7393 29.1069 12.4424 28.909 12.1521 28.6979L7.44169 30.6771L3.08752 23.1562L7.16461 20.0687C7.13822 19.884 7.12502 19.7059 7.12502 19.5344V18.4656C7.12502 18.2941 7.13822 18.116 7.16461 17.9312L3.08752 14.8437L7.44169 7.32291L12.1521 9.30208C12.4424 9.09097 12.7459 8.89305 13.0625 8.70833C13.3792 8.52361 13.6959 8.36527 14.0125 8.23333L14.6459 3.16666H23.3542L23.9875 8.23333C24.3306 8.36527 24.6538 8.52361 24.9573 8.70833C25.2608 8.89305 25.5577 9.09097 25.8479 9.30208L30.5584 7.32291L34.9125 14.8437L30.8354 17.9312C30.8618 18.116 30.875 18.2941 30.875 18.4656V19.5344C30.875 19.7059 30.8486 19.884 30.7959 20.0687L34.8729 23.1562L30.5188 30.6771L25.8479 28.6979C25.5577 28.909 25.2542 29.1069 24.9375 29.2917C24.6209 29.4764 24.3042 29.6347 23.9875 29.7667L23.3542 34.8333H14.6459ZM19.0792 24.5417C20.6097 24.5417 21.916 24.0007 22.9979 22.9187C24.0799 21.8368 24.6209 20.5306 24.6209 19C24.6209 17.4694 24.0799 16.1632 22.9979 15.0812C21.916 13.9993 20.6097 13.4583 19.0792 13.4583C17.5222 13.4583 16.2094 13.9993 15.1406 15.0812C14.0719 16.1632 13.5375 17.4694 13.5375 19C13.5375 20.5306 14.0719 21.8368 15.1406 22.9187C16.2094 24.0007 17.5222 24.5417 19.0792 24.5417Z" fill="black"/>
</svg>
