<svg width="287" height="70" viewBox="0 0 287 70" fill="none" xmlns="http://www.w3.org/2000/svg">
<path d="M108.407 18.9873C108.407 12.3669 113.774 6.99998 120.394 6.99998H274.894C281.515 6.99998 286.881 12.3669 286.881 18.9873C286.881 25.6077 281.514 30.9746 274.894 30.9746H120.394C113.774 30.9746 108.407 25.6077 108.407 18.9873Z" fill="#3A084B"/>
<path d="M108.407 60C108.407 54.4772 112.884 50 118.407 50H237.22C242.743 50 247.22 54.4772 247.22 60C247.22 65.5229 242.743 70 237.22 70H178.314H118.407C112.884 70 108.407 65.5228 108.407 60Z" fill="#3A084B"/>
<path d="M-2.28882e-05 20C-2.28882e-05 8.61929 11.395 -3.8147e-06 26.4407 -3.8147e-06C41.4863 -3.8147e-06 51.056 -3.8147e-06 66.1017 -3.8147e-06C81.1474 -3.8147e-06 92.5424 8.61929 92.5424 20C92.5424 31.3807 92.5424 38.6193 92.5424 50C92.5424 61.3807 81.1474 70 66.1017 70C51.056 70 41.4863 70 26.4407 70C11.395 70 -2.28882e-05 61.3807 -2.28882e-05 50C-2.28882e-05 38.6193 -2.28882e-05 31.3807 -2.28882e-05 20Z" fill="#3A084B"/>
</svg>
