<svg width="48" height="40" viewBox="0 0 48 40" fill="none" xmlns="http://www.w3.org/2000/svg">
<g style="mix-blend-mode:darken">
<path d="M40.7991 7.03817H40.1958C38.7232 7.03817 37.4174 6.09165 36.9592 4.69213C36.4614 3.31554 35.5379 2.1244 34.3167 1.28371C33.0954 0.443027 31.637 -0.0055763 30.1434 5.23252e-05H17.8556C16.3474 0.00281059 14.8781 0.468517 13.6552 1.33144C12.4322 2.19437 11.5174 3.41093 11.0398 4.80943C10.5816 6.20896 9.27585 7.15547 7.80325 7.15547H7.19985C5.29033 7.15547 3.45902 7.89698 2.10879 9.21688C0.758554 10.5368 0 12.327 0 14.1936V32.9619C0 34.8285 0.758554 36.6187 2.10879 37.9386C3.45902 39.2585 5.29033 40 7.19985 40H40.7991C42.7087 40 44.54 39.2585 45.8902 37.9386C47.2404 36.6187 47.999 34.8285 47.999 32.9619V14.1936C48.0149 13.2595 47.8405 12.3317 47.4858 11.4642C47.1311 10.5967 46.6033 9.8069 45.9331 9.14088C45.263 8.47486 44.4639 7.94592 43.5824 7.58491C42.701 7.2239 41.7548 7.03804 40.7991 7.03817ZM43.1991 32.8446C43.1991 33.4668 42.9463 34.0635 42.4962 34.5035C42.0461 34.9435 41.4357 35.1906 40.7991 35.1906H7.19985C6.56334 35.1906 5.95291 34.9435 5.50283 34.5035C5.05275 34.0635 4.7999 33.4668 4.7999 32.8446V14.0763C4.7999 13.4541 5.05275 12.8573 5.50283 12.4174C5.95291 11.9774 6.56334 11.7302 7.19985 11.7302H11.9998C12.5231 11.7569 13.041 11.6155 13.4744 11.3274C13.9077 11.0393 14.2327 10.6205 14.3997 10.1349L15.6957 6.28743C15.8567 5.82146 16.1634 5.41674 16.5725 5.13047C16.9817 4.8442 17.4725 4.69086 17.9756 4.69213H30.2634C30.7665 4.69086 31.2573 4.8442 31.6665 5.13047C32.0756 5.41674 32.3823 5.82146 32.5433 6.28743L33.8393 10.1349C33.9933 10.5824 34.2818 10.9741 34.6672 11.2587C35.0526 11.5433 35.5168 11.7077 35.9993 11.7302H40.7991C41.4357 11.7302 42.0461 11.9774 42.4962 12.4174C42.9463 12.8573 43.1991 13.4541 43.1991 14.0763V32.8446ZM23.9995 11.7302C22.1008 11.7302 20.2448 12.2806 18.6661 13.3118C17.0875 14.3429 15.857 15.8085 15.1304 17.5232C14.4039 19.238 14.2137 21.1248 14.5842 22.9452C14.9546 24.7655 15.8689 26.4376 17.2114 27.75C18.554 29.0624 20.2645 29.9561 22.1267 30.3182C23.9889 30.6803 25.9191 30.4945 27.6732 29.7842C29.4273 29.074 30.9266 27.8712 31.9814 26.3279C33.0363 24.7847 33.5993 22.9704 33.5993 21.1144C33.5993 18.6256 32.5879 16.2387 30.7876 14.4788C28.9873 12.7189 26.5455 11.7302 23.9995 11.7302ZM23.9995 25.8065C23.0502 25.8065 22.1222 25.5313 21.3328 25.0157C20.5435 24.5001 19.9283 23.7673 19.565 22.91C19.2017 22.0526 19.1066 21.1092 19.2918 20.199C19.477 19.2888 19.9342 18.4528 20.6055 17.7966C21.2767 17.1404 22.132 16.6935 23.0631 16.5125C23.9942 16.3314 24.9593 16.4243 25.8363 16.7795C26.7134 17.1346 27.4631 17.736 27.9905 18.5076C28.5179 19.2792 28.7994 20.1864 28.7994 21.1144C28.7994 22.3588 28.2937 23.5523 27.3935 24.4322C26.4934 25.3121 25.2725 25.8065 23.9995 25.8065Z" fill="black"/>
</g>
</svg>
